#define BSOD_width 128
#define BSOD_height 128
static unsigned char BSOD_bits[] = {
   0xff, 0xff, 0xff, 0xff, 0xff, 0xff, 0xff, 0xff, 0xff, 0xff, 0xff, 0xff,
   0xff, 0xff, 0xff, 0xff, 0xff, 0xff, 0xff, 0xff, 0xff, 0xff, 0xff, 0xff,
   0xff, 0xff, 0xff, 0xff, 0xff, 0xff, 0xff, 0xff, 0xff, 0xff, 0xff, 0xff,
   0xff, 0xff, 0xff, 0xff, 0xff, 0xff, 0xff, 0xff, 0xff, 0xff, 0xff, 0xff,
   0xff, 0xff, 0xff, 0xff, 0xff, 0xff, 0xff, 0xff, 0xff, 0xff, 0xff, 0xff,
   0xff, 0xff, 0xff, 0xff, 0xff, 0xff, 0xff, 0xff, 0xff, 0xff, 0xff, 0xff,
   0xff, 0xff, 0xff, 0xff, 0xff, 0xff, 0xff, 0xff, 0xff, 0xff, 0xff, 0xff,
   0xff, 0xff, 0xff, 0xff, 0xff, 0xff, 0xff, 0xff, 0xff, 0xff, 0xff, 0xff,
   0xff, 0xff, 0xff, 0xff, 0xff, 0xff, 0xff, 0xff, 0xff, 0xff, 0xff, 0xff,
   0xff, 0xff, 0xff, 0xff, 0xff, 0xff, 0xff, 0xff, 0xff, 0xff, 0xff, 0xff,
   0xff, 0xff, 0xff, 0xff, 0xff, 0xff, 0xff, 0xff, 0xff, 0xff, 0xff, 0xff,
   0xff, 0xff, 0xff, 0xff, 0xff, 0xff, 0xff, 0xff, 0xff, 0xff, 0xff, 0xff,
   0xff, 0xff, 0xff, 0xff, 0xff, 0xff, 0xff, 0xff, 0xff, 0xff, 0xff, 0xff,
   0xff, 0xff, 0xff, 0xff, 0xff, 0xff, 0xff, 0x0f, 0x00, 0x00, 0x00, 0x00,
   0x00, 0x00, 0x00, 0x00, 0xf0, 0xff, 0xff, 0xff, 0xff, 0xff, 0xff, 0x0f,
   0x00, 0x00, 0x00, 0x00, 0x00, 0x00, 0x00, 0x00, 0xf0, 0xff, 0xff, 0xff,
   0xff, 0xff, 0xff, 0x0f, 0x30, 0x86, 0x01, 0x80, 0x03, 0x00, 0x00, 0x00,
   0xf0, 0xff, 0xff, 0xff, 0xff, 0xff, 0xff, 0x0f, 0x30, 0x86, 0x01, 0x00,
   0x03, 0x00, 0x00, 0x00, 0xf0, 0xff, 0xff, 0xff, 0xff, 0xff, 0xff, 0x0f,
   0x30, 0x06, 0x00, 0x00, 0x03, 0x00, 0x00, 0x00, 0xf0, 0xff, 0xff, 0xff,
   0xff, 0xff, 0xff, 0x0f, 0x30, 0xc6, 0xb1, 0xc3, 0xe3, 0x33, 0xe6, 0x03,
   0xf0, 0xff, 0xff, 0xff, 0xff, 0xff, 0xff, 0x0f, 0xb0, 0x86, 0x61, 0x66,
   0x33, 0x36, 0x36, 0x06, 0xf0, 0xff, 0xff, 0xff, 0xff, 0xff, 0xff, 0x0f,
   0xb0, 0x86, 0x61, 0x36, 0x33, 0xb6, 0x66, 0x00, 0xf0, 0xff, 0xff, 0xff,
   0xff, 0xff, 0xff, 0x0f, 0xb0, 0x86, 0x61, 0x36, 0x33, 0xb6, 0xc6, 0x01,
   0xf0, 0xff, 0xff, 0xff, 0xff, 0xff, 0xff, 0x0f, 0xf0, 0x87, 0x61, 0x36,
   0x33, 0xb6, 0x06, 0x03, 0xf0, 0xff, 0xff, 0xff, 0xff, 0xff, 0xff, 0x0f,
   0x70, 0x87, 0x61, 0x36, 0x33, 0xf6, 0x37, 0x06, 0xf0, 0xff, 0xff, 0xff,
   0xff, 0xff, 0xff, 0x0f, 0x60, 0xc3, 0x63, 0xe6, 0xe6, 0x63, 0xe3, 0x03,
   0xf0, 0xff, 0xff, 0xff, 0xff, 0xff, 0xff, 0x0f, 0x00, 0x00, 0x00, 0x00,
   0x00, 0x00, 0x00, 0x00, 0xf0, 0xff, 0xff, 0xff, 0xff, 0xff, 0xff, 0x0f,
   0x00, 0x00, 0x00, 0x00, 0x00, 0x00, 0x00, 0x00, 0xf0, 0xff, 0xff, 0xff,
   0xff, 0xff, 0xff, 0x0f, 0x00, 0x00, 0x00, 0x00, 0x00, 0x00, 0x00, 0x00,
   0xf0, 0xff, 0xff, 0xff, 0xff, 0xff, 0xff, 0x0f, 0x00, 0x00, 0x00, 0x00,
   0x00, 0x00, 0x00, 0x00, 0xf0, 0xff, 0xff, 0xff, 0xff, 0xff, 0xff, 0xff,
   0xff, 0xff, 0xff, 0xff, 0xff, 0xff, 0xff, 0xff, 0xff, 0xff, 0xff, 0xff,
   0xff, 0xff, 0xff, 0xff, 0xff, 0xff, 0xff, 0xff, 0xff, 0xff, 0xff, 0xff,
   0xff, 0xff, 0xff, 0xff, 0xff, 0xff, 0xff, 0xff, 0xff, 0xff, 0xff, 0xff,
   0xff, 0xff, 0xff, 0xff, 0xff, 0xff, 0xff, 0xff, 0xff, 0xff, 0xff, 0xff,
   0xff, 0xff, 0xff, 0xff, 0xff, 0xff, 0xff, 0xff, 0xff, 0xff, 0xff, 0xff,
   0xff, 0xff, 0xff, 0xff, 0xff, 0xff, 0xff, 0xff, 0xff, 0xff, 0xff, 0xff,
   0xff, 0xff, 0xff, 0xff, 0xff, 0xff, 0xff, 0xff, 0xff, 0xff, 0xff, 0xff,
   0xff, 0xff, 0xff, 0xff, 0xff, 0xff, 0xff, 0xff, 0xff, 0xff, 0xff, 0xff,
   0xff, 0xff, 0xff, 0xff, 0xff, 0xff, 0xff, 0xff, 0xff, 0xff, 0xff, 0xff,
   0xf7, 0xff, 0xff, 0xff, 0xff, 0xff, 0xff, 0xff, 0xff, 0xff, 0xff, 0xff,
   0xff, 0xff, 0xff, 0xf1, 0xe3, 0xff, 0xff, 0xff, 0xff, 0xff, 0xff, 0xff,
   0xff, 0xff, 0xff, 0xff, 0xff, 0xff, 0xff, 0xf3, 0xc9, 0xff, 0xff, 0xff,
   0xff, 0xff, 0xff, 0xff, 0xff, 0xff, 0xff, 0xff, 0xff, 0xff, 0xff, 0xf3,
   0x9c, 0xc4, 0x1f, 0x4c, 0x4c, 0x1c, 0x4c, 0x7c, 0x70, 0x70, 0x30, 0x33,
   0x31, 0x71, 0xf0, 0xf0, 0x9c, 0x99, 0xcf, 0x19, 0x19, 0xc9, 0x19, 0x39,
   0x27, 0x27, 0x27, 0x73, 0x64, 0x24, 0x67, 0xf2, 0x80, 0x99, 0x0f, 0x98,
   0x99, 0xc9, 0x99, 0x39, 0x27, 0x3f, 0x3f, 0x73, 0x66, 0x26, 0x20, 0xf3,
   0x9c, 0x99, 0xcf, 0x9f, 0x9f, 0xcf, 0x99, 0x3f, 0x27, 0x3f, 0x3f, 0x73,
   0x7e, 0x3e, 0x3f, 0xf3, 0x9c, 0x99, 0xcf, 0x9f, 0x9f, 0xcf, 0x99, 0x3f,
   0x27, 0x3f, 0x3f, 0x73, 0x7e, 0x3e, 0x3f, 0xf3, 0x9c, 0x99, 0xcf, 0x99,
   0x9f, 0xcf, 0x99, 0x3f, 0x27, 0x27, 0x27, 0x73, 0x7e, 0x3e, 0x27, 0xf3,
   0x9c, 0x99, 0x1f, 0x0c, 0x0f, 0x1f, 0x0c, 0x7f, 0x70, 0x70, 0x70, 0x24,
   0x3c, 0x7c, 0x70, 0xe4, 0xff, 0xff, 0xff, 0xff, 0xff, 0xff, 0xff, 0xff,
   0xff, 0xff, 0xff, 0xff, 0xff, 0xff, 0xff, 0xff, 0xff, 0xff, 0xff, 0xff,
   0xff, 0xff, 0xff, 0xff, 0xff, 0xff, 0xff, 0xff, 0xff, 0xff, 0xff, 0xff,
   0xff, 0xff, 0xff, 0xff, 0xff, 0xff, 0xff, 0xff, 0xff, 0xff, 0xff, 0xff,
   0xff, 0xff, 0xff, 0xff, 0xff, 0xff, 0xff, 0xff, 0xff, 0xff, 0xff, 0xff,
   0xff, 0xff, 0xff, 0xff, 0xff, 0xff, 0xff, 0xff, 0xff, 0xff, 0xff, 0xff,
   0xff, 0xff, 0xff, 0xff, 0xff, 0xff, 0xff, 0xff, 0xff, 0xff, 0xff, 0xff,
   0xff, 0xff, 0xff, 0xff, 0xff, 0xff, 0xff, 0xff, 0xff, 0xff, 0xff, 0xff,
   0xff, 0xff, 0xff, 0xff, 0xff, 0xff, 0xff, 0xff, 0xff, 0xff, 0xff, 0xff,
   0xff, 0xff, 0xff, 0xff, 0xff, 0xff, 0xff, 0xff, 0xff, 0xff, 0xff, 0xff,
   0xff, 0xff, 0xff, 0xff, 0xff, 0xff, 0xff, 0xff, 0xff, 0xff, 0xff, 0xff,
   0xff, 0xff, 0xff, 0xff, 0xff, 0xff, 0xff, 0xff, 0xff, 0xff, 0xff, 0xff,
   0xff, 0xff, 0xff, 0xff, 0x07, 0xfc, 0xff, 0xff, 0xff, 0xff, 0xff, 0xff,
   0xff, 0xff, 0xff, 0xff, 0xff, 0xff, 0xff, 0xff, 0xcf, 0xfc, 0xff, 0xff,
   0xff, 0xff, 0xff, 0x7f, 0x60, 0x40, 0xc0, 0x60, 0xe0, 0x60, 0xf0, 0xe7,
   0xcf, 0xfd, 0xff, 0xff, 0xff, 0xff, 0xff, 0xff, 0xcc, 0xcc, 0x4c, 0xce,
   0x4c, 0xce, 0xe4, 0xe3, 0x4f, 0x27, 0x26, 0x0e, 0x26, 0xfe, 0xf3, 0xff,
   0xcc, 0xdc, 0x5c, 0xce, 0xcc, 0xcf, 0xcc, 0xe1, 0x0f, 0x8f, 0x8c, 0xe4,
   0x8c, 0xfc, 0xf3, 0xff, 0xcc, 0xf4, 0x74, 0xce, 0xcc, 0xcf, 0xcc, 0xe4,
   0x4f, 0xcf, 0xcc, 0xe4, 0xcc, 0xfc, 0xff, 0xff, 0xe0, 0xf0, 0xf0, 0xc0,
   0xe0, 0xe1, 0x4c, 0xe6, 0xcf, 0xcf, 0xcf, 0xe7, 0xcc, 0xff, 0xff, 0xff,
   0xcc, 0xf4, 0xf4, 0xcf, 0xcc, 0xcf, 0x4c, 0xc0, 0xcf, 0xcd, 0xcf, 0xe7,
   0xcc, 0xff, 0xff, 0xff, 0xcc, 0xfc, 0xfc, 0xcf, 0xcc, 0xcf, 0xcc, 0xe7,
   0xcf, 0xcc, 0xcf, 0xe7, 0xcc, 0xff, 0xf3, 0xff, 0xcc, 0xfc, 0xfc, 0xcf,
   0xcc, 0xcf, 0xcc, 0xe7, 0x07, 0x84, 0x87, 0x0f, 0x86, 0xff, 0xf3, 0xff,
   0xcc, 0xfc, 0xfc, 0xe7, 0x4c, 0xce, 0xe4, 0xe7, 0xff, 0xff, 0xff, 0xff,
   0xff, 0xff, 0xff, 0x7f, 0x60, 0x78, 0xf8, 0x70, 0xe0, 0x60, 0xf0, 0xc3,
   0xff, 0xff, 0xff, 0xff, 0xff, 0xff, 0xff, 0xff, 0xff, 0xff, 0xff, 0xff,
   0xff, 0xff, 0xff, 0xff, 0xff, 0xff, 0xff, 0xff, 0xff, 0xff, 0xff, 0xff,
   0xff, 0xff, 0xff, 0xff, 0xff, 0xff, 0xff, 0xff, 0xff, 0xff, 0xff, 0xff,
   0xff, 0xff, 0xff, 0xff, 0xff, 0xff, 0xff, 0xff, 0xff, 0xff, 0xff, 0xff,
   0xff, 0xff, 0xff, 0xff, 0xff, 0xff, 0xff, 0xff, 0xff, 0xff, 0xff, 0xff,
   0xff, 0xff, 0xff, 0xff, 0xff, 0xff, 0xff, 0xff, 0xff, 0xff, 0xff, 0xff,
   0xff, 0xff, 0xff, 0xff, 0xff, 0xff, 0xff, 0xff, 0xff, 0xff, 0xff, 0xff,
   0xff, 0xff, 0xff, 0xff, 0xff, 0xff, 0xff, 0xff, 0xff, 0xff, 0xff, 0xff,
   0xff, 0xff, 0xff, 0xff, 0xff, 0xff, 0xff, 0xff, 0xff, 0xff, 0xff, 0xff,
   0xff, 0xff, 0xff, 0xff, 0xff, 0xff, 0xff, 0xff, 0xff, 0xff, 0xff, 0xff,
   0xff, 0xff, 0xff, 0xff, 0xff, 0xff, 0xff, 0xff, 0xff, 0xff, 0xff, 0xff,
   0xff, 0xff, 0xff, 0xff, 0xff, 0xff, 0xff, 0xff, 0xff, 0xff, 0xff, 0xff,
   0xff, 0xff, 0xff, 0xff, 0xff, 0x07, 0xfe, 0xff, 0xff, 0xff, 0xff, 0xff,
   0xff, 0xff, 0xff, 0xff, 0xff, 0xff, 0xff, 0xff, 0xff, 0xcf, 0xfc, 0xff,
   0xff, 0xff, 0xff, 0xff, 0xff, 0xff, 0xff, 0xff, 0xff, 0xff, 0xff, 0xff,
   0xff, 0xcf, 0xfc, 0xff, 0xff, 0xff, 0xff, 0xff, 0xff, 0xff, 0xff, 0xff,
   0xff, 0xff, 0xff, 0xff, 0xff, 0xcf, 0x24, 0x0e, 0x0e, 0x0e, 0xfe, 0xff,
   0xff, 0xff, 0xff, 0xff, 0xff, 0xff, 0xff, 0xff, 0xff, 0x0f, 0x8e, 0xe4,
   0xe4, 0xe4, 0xfc, 0xff, 0xff, 0xff, 0xff, 0xff, 0xff, 0xff, 0xff, 0xff,
   0xff, 0xcf, 0xcf, 0x04, 0xcc, 0xcf, 0xff, 0xff, 0xff, 0xff, 0xff, 0xff,
   0xff, 0xff, 0xff, 0xff, 0xff, 0xcf, 0xcf, 0xe7, 0x1f, 0x1f, 0xff, 0xff,
   0xff, 0xff, 0xff, 0xff, 0xff, 0xff, 0xff, 0xff, 0xff, 0xcf, 0xcf, 0xe7,
   0x7f, 0x7e, 0xfe, 0xff, 0xff, 0xff, 0xff, 0xff, 0xff, 0xff, 0xff, 0xff,
   0xff, 0xcf, 0xcf, 0xe7, 0xe4, 0xe4, 0xfc, 0xff, 0xff, 0xff, 0xff, 0xff,
   0xff, 0xff, 0xff, 0xff, 0xff, 0x87, 0x87, 0x0f, 0x0e, 0x0e, 0xfe, 0xff,
   0xff, 0xff, 0xff, 0xff, 0xff, 0xff, 0xff, 0xff, 0xff, 0xff, 0xff, 0xff,
   0xff, 0xff, 0xff, 0xff, 0xff, 0xff, 0xff, 0xff, 0xff, 0xff, 0xff, 0xff,
   0xff, 0xff, 0xff, 0xff, 0xff, 0xff, 0xff, 0xff, 0xff, 0xff, 0xff, 0xff,
   0xff, 0xff, 0xff, 0xff, 0xff, 0xff, 0xff, 0xff, 0xff, 0xff, 0xff, 0xff,
   0xff, 0xff, 0xff, 0xff, 0xff, 0xff, 0xff, 0xff, 0xff, 0xff, 0xff, 0xff,
   0xff, 0xff, 0xff, 0xff, 0xff, 0xff, 0xff, 0xff, 0xff, 0xff, 0xff, 0xff,
   0xff, 0xff, 0xff, 0xff, 0xff, 0xff, 0xff, 0xff, 0xff, 0xff, 0xff, 0xff,
   0xff, 0xff, 0xff, 0xff, 0xff, 0xff, 0xff, 0xff, 0xff, 0xff, 0xff, 0xff,
   0xff, 0xff, 0xff, 0xff, 0xff, 0xff, 0xff, 0xff, 0xff, 0xff, 0xff, 0xff,
   0xff, 0xff, 0xff, 0xff, 0xff, 0xff, 0xff, 0xff, 0xff, 0xff, 0xff, 0xff,
   0xff, 0xff, 0xff, 0xff, 0xff, 0xff, 0xff, 0xff, 0xff, 0xff, 0xff, 0xff,
   0xff, 0xff, 0xff, 0xff, 0xff, 0xff, 0xff, 0xff, 0xff, 0xff, 0xff, 0xff,
   0xff, 0xff, 0xff, 0xff, 0xff, 0xff, 0xff, 0xff, 0xff, 0xff, 0xff, 0xff,
   0xff, 0xff, 0xff, 0xff, 0xff, 0xff, 0xff, 0xff, 0xff, 0xff, 0xc3, 0x81,
   0xc0, 0xf0, 0xff, 0xf7, 0xf0, 0x81, 0xff, 0xe0, 0x80, 0xf0, 0xff, 0xff,
   0xff, 0xff, 0x99, 0x81, 0x99, 0xf9, 0xff, 0xe3, 0xf9, 0x81, 0xff, 0xc9,
   0x99, 0xf9, 0xff, 0xff, 0xff, 0xff, 0xbc, 0xa5, 0x99, 0xf9, 0xff, 0xc9,
   0xf9, 0xa5, 0xff, 0x99, 0xb9, 0xf9, 0xff, 0xff, 0xff, 0xff, 0xfc, 0xe7,
   0x99, 0xf9, 0xe7, 0x9c, 0xf9, 0xe7, 0xe7, 0x99, 0xe9, 0xf9, 0xff, 0xff,
   0xff, 0xff, 0xfc, 0xe7, 0xc1, 0xf9, 0xe7, 0x9c, 0xf9, 0xe7, 0xe7, 0x99,
   0xe1, 0xf9, 0xff, 0xff, 0xff, 0xff, 0xfc, 0xe7, 0xc9, 0xf9, 0x81, 0x80,
   0xf9, 0xe7, 0x81, 0x99, 0xe9, 0xf9, 0xff, 0xff, 0xff, 0xff, 0xfc, 0xe7,
   0x99, 0xf9, 0xe7, 0x9c, 0xf9, 0xe7, 0xe7, 0x99, 0xf9, 0xf9, 0xff, 0xff,
   0xff, 0xff, 0xbc, 0xe7, 0x99, 0xb9, 0xe7, 0x9c, 0xb9, 0xe7, 0xe7, 0x99,
   0xb9, 0xb9, 0xff, 0xff, 0xff, 0xff, 0x99, 0xe7, 0x99, 0x99, 0xff, 0x9c,
   0x99, 0xe7, 0xff, 0xc9, 0x99, 0x99, 0xff, 0xff, 0xff, 0xff, 0xc3, 0xc3,
   0x98, 0x80, 0xff, 0x9c, 0x80, 0xc3, 0xff, 0xe0, 0x80, 0x80, 0xff, 0xff,
   0xff, 0xff, 0xff, 0xff, 0xff, 0xff, 0xff, 0xff, 0xff, 0xff, 0xff, 0xff,
   0xff, 0xff, 0xff, 0xff, 0xff, 0xff, 0xff, 0xff, 0xff, 0xff, 0xff, 0xff,
   0xff, 0xff, 0xff, 0xff, 0xff, 0xff, 0xff, 0xff, 0xff, 0xff, 0xff, 0xff,
   0xff, 0xff, 0xff, 0xff, 0xff, 0xff, 0xff, 0xff, 0xff, 0xff, 0xff, 0xff,
   0xff, 0xff, 0xff, 0xff, 0xff, 0xff, 0xff, 0xff, 0xff, 0xff, 0xff, 0xff,
   0xff, 0xff, 0xff, 0xff, 0xff, 0xff, 0xff, 0xff, 0xff, 0xff, 0xff, 0xff,
   0xff, 0xff, 0xff, 0xff, 0xff, 0xff, 0xff, 0xff, 0xff, 0xff, 0xff, 0xff,
   0xff, 0xff, 0xff, 0xff, 0xff, 0xff, 0xff, 0xff, 0xff, 0xff, 0xff, 0xff,
   0xff, 0xff, 0xff, 0xff, 0xff, 0xff, 0xff, 0xff, 0xff, 0xff, 0xff, 0xff,
   0xff, 0xff, 0xff, 0xff, 0xff, 0xff, 0xff, 0xff, 0xff, 0xff, 0xff, 0xff,
   0xff, 0xff, 0xff, 0xff, 0xff, 0xff, 0xff, 0xff, 0xff, 0xff, 0xff, 0xff,
   0xff, 0xff, 0xff, 0xff, 0xff, 0xff, 0xff, 0xff, 0xff, 0xff, 0xff, 0xff,
   0xff, 0xff, 0xff, 0xfd, 0xff, 0xff, 0xff, 0xff, 0xff, 0xfd, 0xff, 0xff,
   0xfd, 0xff, 0xff, 0xff, 0xff, 0xff, 0xff, 0xfc, 0xff, 0xff, 0xff, 0xff,
   0xff, 0xfc, 0xff, 0xff, 0xfc, 0xff, 0xff, 0xff, 0xff, 0xff, 0xff, 0xfc,
   0xff, 0xff, 0xff, 0xff, 0xff, 0xfc, 0xff, 0xff, 0xfc, 0xff, 0xff, 0xff,
   0xff, 0xff, 0x3f, 0x70, 0xf0, 0x3f, 0x71, 0x70, 0x30, 0x70, 0x38, 0x31,
   0xf0, 0xff, 0xff, 0xff, 0xff, 0xff, 0xff, 0x3c, 0xe7, 0x7f, 0x24, 0x27,
   0xe7, 0xfc, 0x73, 0xe4, 0xfc, 0xff, 0xff, 0xff, 0xff, 0xff, 0xff, 0x3c,
   0xe7, 0x7f, 0x26, 0x60, 0xfe, 0x7c, 0x70, 0xe6, 0xfc, 0xff, 0xff, 0xff,
   0xff, 0xff, 0xff, 0x3c, 0xe7, 0x7f, 0x3e, 0xff, 0xf8, 0x3c, 0x73, 0xfe,
   0xfc, 0xff, 0xff, 0xff, 0xff, 0xff, 0xff, 0x3c, 0xe7, 0x7f, 0x3e, 0xff,
   0xf3, 0x3c, 0x73, 0xfe, 0xfc, 0xff, 0xff, 0xff, 0xff, 0xff, 0xff, 0x24,
   0xe7, 0x7f, 0x3e, 0x27, 0xe7, 0x24, 0x73, 0xfe, 0xe4, 0xff, 0xff, 0xff,
   0xff, 0xff, 0xff, 0x71, 0xf0, 0x3f, 0x7c, 0x70, 0xf0, 0x71, 0x24, 0xfc,
   0xf1, 0xff, 0xff, 0xff, 0xff, 0xff, 0xff, 0xff, 0xff, 0xff, 0xff, 0xff,
   0xff, 0xff, 0xff, 0xff, 0xff, 0xff, 0xff, 0xff, 0xff, 0xff, 0xff, 0xff,
   0xff, 0xff, 0xff, 0xff, 0xff, 0xff, 0xff, 0xff, 0xff, 0xff, 0xff, 0xff,
   0xff, 0xff, 0xff, 0xff, 0xff, 0xff, 0xff, 0xff, 0xff, 0xff, 0xff, 0xff,
   0xff, 0xff, 0xff, 0xff, 0xff, 0xff, 0xff, 0xff, 0xff, 0xff, 0xff, 0xff,
   0xff, 0xff, 0xff, 0xff, 0xff, 0xff, 0xff, 0xff, 0xff, 0xff, 0xff, 0xff,
   0xff, 0xff, 0xff, 0xff, 0xff, 0xff, 0xff, 0xff, 0xff, 0xff, 0xff, 0xff,
   0xff, 0xff, 0xff, 0xff, 0xff, 0xff, 0xff, 0xff, 0xff, 0xff, 0xff, 0xff,
   0xff, 0xff, 0xff, 0xff, 0xff, 0xff, 0xff, 0xff, 0xff, 0xff, 0xff, 0xff,
   0xff, 0xff, 0xff, 0xff, 0xff, 0xff, 0xff, 0xff };
