#define hackrva_width 84
#define hackrva_height 48
static const char hackrva_bits[] = {
   0x00, 0x00, 0xf0, 0xff, 0x7f, 0x00, 0xf8, 0x7f, 0x00, 0x00, 0x00, 0x00,
   0x00, 0xf8, 0xff, 0xff, 0x00, 0xe0, 0x7f, 0x00, 0x00, 0x00, 0x00, 0x00,
   0x00, 0xfc, 0xff, 0x03, 0xc0, 0x7f, 0x00, 0x00, 0x00, 0x00, 0x00, 0x00,
   0xe0, 0xff, 0x0f, 0x80, 0x7f, 0x00, 0x00, 0x00, 0x00, 0x00, 0x00, 0x00,
   0xff, 0x1f, 0x00, 0x7f, 0x00, 0x00, 0x00, 0x00, 0x00, 0x00, 0x00, 0xf8,
   0x3f, 0x00, 0x7e, 0x00, 0x00, 0x00, 0x00, 0x00, 0x00, 0x00, 0xf0, 0xff,
   0x00, 0x7c, 0x00, 0x00, 0x00, 0x00, 0x00, 0x00, 0x00, 0xc0, 0xff, 0x01,
   0x78, 0x00, 0x00, 0x00, 0x00, 0x00, 0x00, 0x00, 0x00, 0xff, 0x03, 0x70,
   0x00, 0x00, 0x00, 0x00, 0x00, 0xfc, 0x01, 0x00, 0xfe, 0x07, 0x70, 0x00,
   0x00, 0x00, 0x00, 0x00, 0xfc, 0x0f, 0x00, 0xf8, 0x0f, 0x60, 0x00, 0x00,
   0x00, 0x00, 0x00, 0xfc, 0x7f, 0x00, 0xf0, 0x1f, 0x40, 0x00, 0x00, 0x00,
   0x00, 0x00, 0xfc, 0xff, 0x01, 0xe0, 0x3f, 0x40, 0x00, 0x00, 0x00, 0x00,
   0x00, 0xfc, 0xff, 0x07, 0xc0, 0x3f, 0x00, 0x00, 0x00, 0x00, 0x00, 0x00,
   0x80, 0xff, 0x0f, 0x80, 0x7f, 0x00, 0x00, 0x00, 0x00, 0x00, 0x00, 0x00,
   0xfc, 0x3f, 0x00, 0xff, 0x00, 0x00, 0x00, 0x00, 0x00, 0x00, 0x00, 0xe0,
   0x7f, 0x00, 0xfe, 0x01, 0x00, 0x00, 0x00, 0x00, 0x00, 0x00, 0x80, 0xff,
   0x00, 0xfc, 0x01, 0x00, 0x00, 0x00, 0x00, 0x00, 0x00, 0x00, 0xfe, 0x01,
   0xfc, 0x03, 0x00, 0x00, 0x00, 0x00, 0x00, 0x00, 0x00, 0xfc, 0x03, 0xf8,
   0x03, 0x00, 0x00, 0x00, 0x00, 0x00, 0x00, 0x00, 0xf8, 0x07, 0xf0, 0x07,
   0x00, 0x00, 0x00, 0x00, 0x00, 0x3c, 0x00, 0xe0, 0x0f, 0xf0, 0x0f, 0x00,
   0x00, 0x00, 0x00, 0x00, 0xfc, 0x01, 0xc0, 0x0f, 0xe0, 0x0f, 0x00, 0x00,
   0x00, 0x00, 0x00, 0xfc, 0x07, 0xc0, 0x1f, 0xe0, 0x1f, 0x00, 0x00, 0x00,
   0x00, 0x00, 0xfc, 0x1f, 0x80, 0x3f, 0xc0, 0x1f, 0x00, 0x00, 0x00, 0x00,
   0x00, 0xfc, 0x3f, 0x00, 0x3f, 0x80, 0x1f, 0x00, 0x00, 0x00, 0x00, 0x00,
   0xfc, 0x7f, 0x00, 0x7e, 0x80, 0x3f, 0x00, 0x00, 0x00, 0x00, 0x00, 0xf0,
   0xff, 0x01, 0x7e, 0x80, 0x3f, 0x00, 0x00, 0x00, 0x00, 0x00, 0x80, 0xff,
   0x01, 0xfc, 0x00, 0x3f, 0x00, 0x00, 0x00, 0x00, 0x00, 0x00, 0xfe, 0x03,
   0xf8, 0x00, 0x7f, 0x00, 0x00, 0x00, 0x00, 0x00, 0x00, 0xfc, 0x07, 0xf8,
   0x01, 0x7f, 0x00, 0x00, 0x00, 0x00, 0x00, 0x00, 0xf0, 0x0f, 0xf0, 0x01,
   0x7e, 0x00, 0x00, 0x00, 0x00, 0x00, 0x00, 0xf0, 0x0f, 0xf0, 0x03, 0x7e,
   0x00, 0x00, 0x00, 0x00, 0x00, 0x00, 0xe0, 0x1f, 0xf0, 0x03, 0x7e, 0x00,
   0x00, 0x00, 0x00, 0x00, 0x04, 0xc0, 0x1f, 0xe0, 0x03, 0x7e, 0x00, 0x00,
   0x00, 0x00, 0x00, 0x1c, 0x80, 0x1f, 0xe0, 0x03, 0x7c, 0x00, 0x00, 0x00,
   0x00, 0x00, 0x00, 0x00, 0x00, 0x00, 0x00, 0x00, 0x00, 0x00, 0x00, 0x00,
   0x00, 0x00, 0x00, 0x00, 0x00, 0x00, 0x00, 0x00, 0x00, 0x00, 0x00, 0x00,
   0xfc, 0xff, 0xff, 0xff, 0xff, 0x7f, 0x00, 0x00, 0x00, 0x00, 0x00, 0xc4,
   0xff, 0x1f, 0xff, 0xff, 0x7f, 0x00, 0x00, 0x00, 0x00, 0x00, 0xcc, 0xff,
   0x3f, 0xff, 0xff, 0x7f, 0x00, 0x00, 0x00, 0x00, 0x00, 0x0c, 0xc7, 0x33,
   0xff, 0xfc, 0x73, 0x00, 0x00, 0x00, 0x00, 0x00, 0x0c, 0x92, 0x24, 0x3c,
   0x20, 0x65, 0x00, 0x00, 0x00, 0x00, 0x00, 0x4c, 0x9e, 0x3c, 0x7e, 0xa7,
   0x65, 0x00, 0x00, 0x00, 0x00, 0x00, 0x4c, 0x86, 0x3c, 0x7c, 0x8f, 0x61,
   0x00, 0x00, 0x00, 0x00, 0x00, 0x4c, 0x92, 0x3c, 0x7d, 0x8f, 0x65, 0x00,
   0x00, 0x00, 0x00, 0x00, 0x4c, 0x80, 0x21, 0x21, 0xde, 0x41, 0x00, 0x00,
   0x00, 0x00, 0x00, 0xfc, 0xff, 0xff, 0xff, 0xff, 0x7f, 0x00, 0x00, 0x00 };
